<?xml version="1.0" encoding="UTF-8"?>
<svg id="_レイヤー_1" data-name="レイヤー 1" xmlns="http://www.w3.org/2000/svg" viewBox="0 0 635.76 1929.12">
  <defs>
    <style>
      .cls-1 {
        fill: none;
      }
    </style>
  </defs>
  <path id="_パス_3" data-name="パス 3" class="cls-1" d="m155.04,0s-2.19,119.69,82.34,144.93,110.97,129.46,84.75,183.64-80.78,106.76-56.83,161.29,55.1,82.78,121.04,93.07,152.29-64.13,119.93-101.15-96.04-23.42-131.66,70.23c-4.42,11.61-11.6,23.54-20.91,35.64C288.86,671.86,22.91,823.1.95,804.45c-21.96-35.4,344.91-244.5,380.43-216.79s11.05,60.85-6.76,82.8-159.19,149.87-120.06,209.57,96.15,230.4,110.19,277.26-12.75,96.45-66.28,64.79-113.25-88.14-92.31-81.61,86.24,62.08,87.74,83.75c.83,8.63.39,10.99-2.44,14.83-3.83,2.87-8.86,5.48-17.77,4.58-15.33-1.55-132.65-87.03-98.18-75.06,36.55,12.69,101.2,69.1,94.69,82.08s-28.92,21.76-49.66,9.65-82.58-56.44-74.14-64.58,84.42,73.55,123.79,79.67c37.23-1.47,26.58-13.26,51.12-11.64s324.72,58.14,314.17,91.31c-74.18,13.54-266.6-102.2-305.11-100.29s-153.68,83.52-74.94,147.21-37.92,199.08,44.17,381.28,63.79,142.16,63.79,142.16"/>
</svg>